<svg width="25" height="24" viewBox="0 0 25 24" fill="none" xmlns="http://www.w3.org/2000/svg">
<g id="Icon">
<path id="Vector" d="M12.7293 15.5C11.8011 15.5 10.9108 15.1313 10.2545 14.4749C9.59808 13.8185 9.22933 12.9283 9.22933 12C9.22933 11.0717 9.59808 10.1815 10.2545 9.52513C10.9108 8.86875 11.8011 8.5 12.7293 8.5C13.6576 8.5 14.5478 8.86875 15.2042 9.52513C15.8606 10.1815 16.2293 11.0717 16.2293 12C16.2293 12.9283 15.8606 13.8185 15.2042 14.4749C14.5478 15.1313 13.6576 15.5 12.7293 15.5ZM20.1593 12.97C20.1993 12.65 20.2293 12.33 20.2293 12C20.2293 11.67 20.1993 11.34 20.1593 11L22.2693 9.37C22.4593 9.22 22.5093 8.95 22.3893 8.73L20.3893 5.27C20.2693 5.05 19.9993 4.96 19.7793 5.05L17.2893 6.05C16.7693 5.66 16.2293 5.32 15.5993 5.07L15.2293 2.42C15.209 2.30222 15.1477 2.19543 15.0561 2.11855C14.9646 2.04168 14.8489 1.99968 14.7293 2H10.7293C10.4793 2 10.2693 2.18 10.2293 2.42L9.85933 5.07C9.22933 5.32 8.68933 5.66 8.16933 6.05L5.67933 5.05C5.45933 4.96 5.18933 5.05 5.06933 5.27L3.06933 8.73C2.93933 8.95 2.99933 9.22 3.18933 9.37L5.29933 11C5.25933 11.34 5.22933 11.67 5.22933 12C5.22933 12.33 5.25933 12.65 5.29933 12.97L3.18933 14.63C2.99933 14.78 2.93933 15.05 3.06933 15.27L5.06933 18.73C5.18933 18.95 5.45933 19.03 5.67933 18.95L8.16933 17.94C8.68933 18.34 9.22933 18.68 9.85933 18.93L10.2293 21.58C10.2693 21.82 10.4793 22 10.7293 22H14.7293C14.9793 22 15.1893 21.82 15.2293 21.58L15.5993 18.93C16.2293 18.67 16.7693 18.34 17.2893 17.94L19.7793 18.95C19.9993 19.03 20.2693 18.95 20.3893 18.73L22.3893 15.27C22.5093 15.05 22.4593 14.78 22.2693 14.63L20.1593 12.97Z" fill="#3A3541" fill-opacity="0.87"/>
</g>
</svg>
